<svg width="181" height="191" viewBox="0 0 181 191" fill="none" xmlns="http://www.w3.org/2000/svg">
<path d="M90.4554 189.12C93.5154 189.12 96.5254 188.27 99.1854 186.65L161.155 148.99C166.695 145.62 170.125 139.29 170.125 132.45V57.7397C170.125 50.9197 166.695 44.5797 161.155 41.1997L99.1854 3.53969C93.8554 0.299694 87.0354 0.319694 81.7354 3.53969L19.7654 41.2197C14.2254 44.5897 10.7754 50.9197 10.7754 57.7597V132.46C10.7754 138.22 13.2254 143.64 17.3254 147.21V147.24L81.7354 186.67C84.3754 188.27 87.3954 189.12 90.4554 189.12ZM91.1054 8.06969C93.0554 8.06969 95.5354 9.27969 97.2454 10.3297L158.005 47.5197C161.755 49.7997 163.875 56.3997 163.875 61.1497L163.245 132.45C163.245 137.2 160.045 141.47 156.295 143.75L95.8954 180.13C92.4654 182.22 89.6754 182.22 86.2354 180.13L25.0254 143.66C21.2754 141.38 18.2554 137.18 18.2554 132.45V58.8097C18.2554 54.0697 20.9854 49.1797 24.7554 46.8897L85.3354 10.3297C87.0354 9.28969 89.1554 8.06969 91.1054 8.06969Z" fill="#F2F1F0"/>
<path fill-rule="evenodd" clip-rule="evenodd" d="M98.3554 11.6497C95.9054 10.1497 93.1854 9.39966 90.4554 9.39966C87.7254 9.39966 85.0054 10.1597 82.5554 11.6497L26.4254 45.9796C21.4054 49.0496 18.2954 54.7996 18.2954 61.0496V129.15C18.2954 135.38 21.3954 141.15 26.4254 144.22L82.5554 178.55C85.0054 180.05 87.7254 180.8 90.4554 180.8C93.1854 180.8 95.9054 180.06 98.3554 178.55L154.485 144.22C159.505 141.15 162.615 135.38 162.615 129.15V61.0496C162.615 54.8196 159.515 49.0696 154.485 45.9796L98.3554 11.6497Z" fill="url(#paint0_linear_318_27)"/>
<path fill-rule="evenodd" clip-rule="evenodd" d="M90.4554 10.8696C92.1354 10.8696 94.0253 11.7396 96.0853 12.9896L154.555 48.5296C158.205 50.7496 160.615 55.0196 160.615 59.8496V130.33C160.615 135.15 158.205 139.43 154.555 141.65L96.0954 177.19C94.1354 178.38 92.2154 179.13 90.4654 179.13C88.7154 179.13 86.7954 178.38 84.8354 177.19L26.3554 141.66C24.3454 140.43 22.8954 139.23 21.9154 137.62C20.9354 136.02 20.2954 133.8 20.2954 130.34V59.8596C20.2954 55.0296 22.7054 50.7596 26.3554 48.5396L84.8154 12.9996C86.9054 11.7496 88.7654 10.8696 90.4554 10.8696ZM98.1653 180.62L156.625 145.08C161.545 142.09 164.605 136.47 164.605 130.34V59.8596C164.605 53.7296 161.545 48.1096 156.625 45.1196L98.1653 9.57963C96.0553 8.29963 93.3454 6.86963 90.4554 6.86963C87.5554 6.86963 84.8454 8.30963 82.7554 9.56963H82.7454L24.2754 45.1196C19.3554 48.1096 16.2954 53.7296 16.2954 59.8596V130.34C16.2954 134.3 17.0354 137.29 18.4954 139.7C19.9554 142.1 22.0154 143.7 24.2754 145.07L82.7354 180.61C84.9554 181.96 87.6254 183.14 90.4454 183.14C93.2653 183.14 95.9453 181.97 98.1653 180.62Z" fill="url(#paint1_linear_318_27)"/>
<path d="M90.4554 189.12C93.5154 189.12 96.5254 188.27 99.1854 186.65L161.155 148.99C166.695 145.62 170.125 139.29 170.125 132.45V57.7397C170.125 50.9197 166.695 44.5797 161.155 41.1997L99.1854 3.53969C93.8554 0.299694 87.0354 0.319694 81.7354 3.53969L19.7654 41.2197C14.2254 44.5897 10.7754 50.9197 10.7754 57.7597V132.46C10.7754 138.22 13.2254 143.64 17.3254 147.21V147.24L81.7354 186.67C84.3754 188.27 87.3954 189.12 90.4554 189.12ZM91.1054 8.06969C93.0554 8.06969 95.5354 9.27969 97.2454 10.3297L158.005 47.5197C161.755 49.7997 163.875 56.3997 163.875 61.1497L163.245 132.45C163.245 137.2 160.045 141.47 156.295 143.75L95.8954 180.13C92.4654 182.22 89.6754 182.22 86.2354 180.13L25.0254 143.66C21.2754 141.38 18.2554 137.18 18.2554 132.45V58.8097C18.2554 54.0697 20.9854 49.1797 24.7554 46.8897L85.3354 10.3297C87.0354 9.28969 89.1554 8.06969 91.1054 8.06969Z" fill="#F2F1F0"/>
<path fill-rule="evenodd" clip-rule="evenodd" d="M98.3554 11.6497C95.9054 10.1497 93.1854 9.39966 90.4554 9.39966C87.7254 9.39966 85.0054 10.1597 82.5554 11.6497L26.4254 45.9796C21.4054 49.0496 18.2954 54.7996 18.2954 61.0496V129.15C18.2954 135.38 21.3954 141.15 26.4254 144.22L82.5554 178.55C85.0054 180.05 87.7254 180.8 90.4554 180.8C93.1854 180.8 95.9054 180.06 98.3554 178.55L154.485 144.22C159.505 141.15 162.615 135.38 162.615 129.15V61.0496C162.615 54.8196 159.515 49.0696 154.485 45.9796L98.3554 11.6497Z" fill="#ECF7E7"/>
<path fill-rule="evenodd" clip-rule="evenodd" d="M90.4554 10.8696C92.1354 10.8696 94.0253 11.7396 96.0853 12.9896L154.555 48.5296C158.205 50.7496 160.615 55.0196 160.615 59.8496V130.33C160.615 135.15 158.205 139.43 154.555 141.65L96.0954 177.19C94.1354 178.38 92.2154 179.13 90.4654 179.13C88.7154 179.13 86.7954 178.38 84.8354 177.19L26.3554 141.66C24.3454 140.43 22.8954 139.23 21.9154 137.62C20.9354 136.02 20.2954 133.8 20.2954 130.34V59.8596C20.2954 55.0296 22.7054 50.7596 26.3554 48.5396L84.8154 12.9996C86.9054 11.7496 88.7654 10.8696 90.4554 10.8696ZM98.1653 180.62L156.625 145.08C161.545 142.09 164.605 136.47 164.605 130.34V59.8596C164.605 53.7296 161.545 48.1096 156.625 45.1196L98.1653 9.57963C96.0553 8.29963 93.3454 6.86963 90.4554 6.86963C87.5554 6.86963 84.8454 8.30963 82.7554 9.56963H82.7454L24.2754 45.1196C19.3554 48.1096 16.2954 53.7296 16.2954 59.8596V130.34C16.2954 134.3 17.0354 137.29 18.4954 139.7C19.9554 142.1 22.0154 143.7 24.2754 145.07L82.7354 180.61C84.9554 181.96 87.6254 183.14 90.4454 183.14C93.2653 183.14 95.9453 181.97 98.1653 180.62Z" fill="url(#paint2_linear_318_27)"/>
<path d="M136.73 136.98H152.71V134.62H151.07V132.35H149.32V130.1H147.75V127.98H149.32V125.73H150.93V123.39H152.71V121.17H136.73L139.97 129.72L136.73 136.98Z" fill="#466E3F"/>
<path d="M142.73 128.72H136.73V121.17L142.73 124.29V128.72Z" fill="#253515"/>
<path d="M44.1903 137.24H28.2003V134.88H29.8403V132.61H31.5903V130.36H33.1703V128.24H31.5903V125.99H29.9903V123.65H28.2003V121.43H43.9603L40.9403 129.98L44.1903 137.24Z" fill="#466E3F"/>
<path d="M42.2603 128.11L43.9602 128.98V121.43L38.3103 124.26L42.2603 128.11Z" fill="#253515"/>
<path d="M142.74 124.26H38.3103V139.85H142.74V124.26Z" fill="#69B163"/>
<path opacity="0.2" d="M43.812 132.922C43.472 132.922 43.282 132.842 43.032 132.582L42.872 132.422C42.652 132.202 42.582 132.012 42.582 131.702V131.102C42.582 130.762 42.662 130.562 42.892 130.322L43.272 129.942C43.522 129.702 43.702 129.602 44.062 129.602H46.432C46.592 129.602 46.672 129.682 46.672 129.842V130.602C46.672 130.762 46.592 130.842 46.432 130.842H44.362C44.262 130.842 44.192 130.872 44.132 130.932L44.042 131.022C43.972 131.092 43.952 131.142 43.952 131.242V131.322C43.952 131.392 43.972 131.442 44.042 131.512L44.082 131.552C44.142 131.612 44.202 131.642 44.292 131.642H45.572C45.912 131.642 46.102 131.722 46.352 131.982L46.512 132.142C46.732 132.362 46.802 132.552 46.802 132.862V133.472C46.802 133.812 46.722 134.012 46.492 134.252L46.122 134.632C45.872 134.882 45.682 134.972 45.322 134.972H42.822C42.662 134.972 42.582 134.892 42.582 134.732V133.972C42.582 133.812 42.662 133.732 42.822 133.732H45.022C45.122 133.732 45.192 133.702 45.252 133.642L45.342 133.552C45.412 133.482 45.432 133.432 45.432 133.332V133.242C45.432 133.172 45.412 133.122 45.342 133.052L45.302 133.012C45.242 132.952 45.182 132.922 45.092 132.922H43.812V132.922Z" fill="#1F1D20"/>
<path opacity="0.2" d="M49.132 134.732V130.922C49.132 130.872 49.1121 130.842 49.0521 130.842H47.8721C47.7121 130.842 47.6321 130.762 47.6321 130.602V129.842C47.6321 129.682 47.7121 129.602 47.8721 129.602H51.822C51.982 129.602 52.062 129.682 52.062 129.842V130.602C52.062 130.762 51.982 130.842 51.822 130.842H50.642C50.592 130.842 50.562 130.862 50.562 130.922V134.732C50.562 134.892 50.482 134.972 50.322 134.972H49.372C49.212 134.972 49.132 134.892 49.132 134.732Z" fill="#1F1D20"/>
<path opacity="0.2" d="M54.652 134.972C54.282 134.972 54.102 134.882 53.852 134.632L53.352 134.132C53.112 133.892 53.042 133.692 53.042 133.352V129.842C53.042 129.682 53.122 129.602 53.282 129.602H54.252C54.412 129.602 54.492 129.682 54.492 129.842V133.102C54.492 133.252 54.522 133.322 54.622 133.422L54.782 133.582C54.882 133.682 54.962 133.712 55.102 133.712H55.432C55.582 133.712 55.652 133.682 55.752 133.582L55.912 133.422C56.012 133.322 56.042 133.252 56.042 133.102V129.842C56.042 129.682 56.122 129.602 56.282 129.602H57.242C57.402 129.602 57.482 129.682 57.482 129.842V133.352C57.482 133.692 57.402 133.892 57.172 134.132L56.672 134.632C56.422 134.882 56.242 134.972 55.872 134.972H54.652Z" fill="#1F1D20"/>
<path opacity="0.2" d="M58.7321 134.732V129.842C58.7321 129.682 58.8121 129.602 58.9721 129.602H61.7221C62.0921 129.602 62.2721 129.692 62.5221 129.942L63.0221 130.442C63.2621 130.682 63.3321 130.882 63.3321 131.222V133.352C63.3321 133.692 63.2521 133.892 63.0221 134.132L62.5221 134.632C62.2721 134.882 62.0921 134.972 61.7221 134.972H58.9721C58.8121 134.972 58.7321 134.892 58.7321 134.732ZM61.2821 133.752C61.4321 133.752 61.5021 133.722 61.6021 133.622L61.7621 133.462C61.8621 133.362 61.8921 133.292 61.8921 133.142V131.442C61.8921 131.292 61.8621 131.222 61.7621 131.122L61.6021 130.962C61.5021 130.862 61.4221 130.832 61.2821 130.832H60.2521C60.2021 130.832 60.1721 130.852 60.1721 130.912V133.682C60.1721 133.732 60.1921 133.762 60.2521 133.762H61.2821V133.752Z" fill="#1F1D20"/>
<path opacity="0.2" d="M64.532 134.732V129.842C64.532 129.682 64.612 129.602 64.772 129.602H68.2621C68.4221 129.602 68.5021 129.682 68.5021 129.842V130.602C68.5021 130.762 68.4221 130.842 68.2621 130.842H66.052C66.002 130.842 65.972 130.862 65.972 130.922V131.572C65.972 131.622 65.992 131.652 66.052 131.652H67.9221C68.0821 131.652 68.1621 131.732 68.1621 131.892V132.612C68.1621 132.772 68.0821 132.852 67.9221 132.852H66.052C66.002 132.852 65.972 132.872 65.972 132.932V133.672C65.972 133.722 65.992 133.752 66.052 133.752H68.2621C68.4221 133.752 68.5021 133.832 68.5021 133.992V134.752C68.5021 134.912 68.4221 134.992 68.2621 134.992H64.772C64.612 134.972 64.532 134.892 64.532 134.732Z" fill="#1F1D20"/>
<path opacity="0.2" d="M69.722 134.732V129.842C69.722 129.682 69.802 129.602 69.962 129.602H70.892C71.082 129.602 71.172 129.662 71.272 129.822L72.702 132.392C72.722 132.442 72.782 132.422 72.782 132.372V129.832C72.782 129.672 72.852 129.592 73.022 129.592H73.942C74.102 129.592 74.182 129.672 74.182 129.832V134.722C74.182 134.882 74.102 134.962 73.942 134.962H73.012C72.822 134.962 72.732 134.902 72.632 134.742L71.202 132.172C71.182 132.122 71.122 132.142 71.122 132.192V134.732C71.122 134.892 71.052 134.972 70.882 134.972H69.962C69.802 134.972 69.722 134.892 69.722 134.732Z" fill="#1F1D20"/>
<path opacity="0.2" d="M76.732 134.732V130.922C76.732 130.872 76.712 130.842 76.652 130.842H75.472C75.3121 130.842 75.2321 130.762 75.2321 130.602V129.842C75.2321 129.682 75.3121 129.602 75.472 129.602H79.422C79.582 129.602 79.662 129.682 79.662 129.842V130.602C79.662 130.762 79.582 130.842 79.422 130.842H78.242C78.192 130.842 78.162 130.862 78.162 130.922V134.732C78.162 134.892 78.082 134.972 77.922 134.972H76.972C76.812 134.972 76.732 134.892 76.732 134.732Z" fill="#1F1D20"/>
<path opacity="0.2" d="M84.102 133.812C84.052 133.812 84.022 133.832 84.012 133.892L83.812 134.692C83.762 134.902 83.692 134.972 83.512 134.972H82.562C82.372 134.972 82.312 134.852 82.352 134.692L83.612 129.912C83.672 129.682 83.762 129.602 84.042 129.602H85.562C85.842 129.602 85.932 129.682 85.992 129.912L87.2519 134.692C87.2919 134.852 87.2319 134.972 87.0419 134.972H86.082C85.902 134.972 85.832 134.912 85.782 134.692L85.582 133.892C85.562 133.842 85.542 133.812 85.492 133.812H84.102ZM85.222 132.662C85.272 132.662 85.282 132.632 85.272 132.592L84.842 130.812C84.822 130.762 84.762 130.762 84.752 130.812L84.322 132.592C84.312 132.632 84.332 132.662 84.372 132.662H85.222Z" fill="#1F1D20"/>
<path opacity="0.2" d="M88.2219 134.732V129.842C88.2219 129.682 88.3019 129.602 88.4619 129.602H89.642C89.832 129.602 89.902 129.642 89.982 129.812L90.932 131.772C90.952 131.822 91.002 131.822 91.022 131.772L91.962 129.812C92.042 129.632 92.122 129.602 92.302 129.602H93.4921C93.6521 129.602 93.7321 129.682 93.7321 129.842V134.732C93.7321 134.892 93.6521 134.972 93.4921 134.972H92.552C92.392 134.972 92.312 134.892 92.312 134.732V131.902C92.312 131.852 92.252 131.832 92.232 131.882L91.282 133.882C91.232 134.002 91.142 134.042 91.012 134.042H90.932C90.802 134.042 90.722 133.992 90.672 133.882L89.722 131.882C89.702 131.832 89.642 131.852 89.642 131.902V134.732C89.642 134.892 89.562 134.972 89.402 134.972H88.4619C88.3019 134.972 88.2219 134.892 88.2219 134.732Z" fill="#1F1D20"/>
<path opacity="0.2" d="M95.062 134.732V129.842C95.062 129.682 95.142 129.602 95.302 129.602H98.082C98.442 129.602 98.622 129.692 98.872 129.942L99.172 130.242C99.422 130.492 99.482 130.682 99.482 130.982V131.162C99.482 131.452 99.422 131.642 99.172 131.902L98.922 132.152C98.862 132.212 98.862 132.262 98.922 132.332L99.242 132.652C99.492 132.902 99.552 133.092 99.552 133.392V133.622C99.552 133.912 99.482 134.112 99.242 134.362L98.942 134.662C98.692 134.912 98.512 135.002 98.152 135.002H95.292C95.142 134.972 95.062 134.892 95.062 134.732ZM97.562 131.732C97.682 131.732 97.752 131.712 97.842 131.622L97.942 131.522C98.022 131.442 98.052 131.372 98.052 131.252V131.122C98.052 131.002 98.032 130.942 97.942 130.852L97.852 130.762C97.772 130.682 97.702 130.642 97.582 130.642H96.582C96.532 130.642 96.502 130.662 96.502 130.722V131.652C96.502 131.702 96.522 131.732 96.582 131.732H97.562ZM97.652 133.932C97.772 133.932 97.832 133.892 97.922 133.822L98.012 133.732C98.092 133.652 98.122 133.582 98.122 133.462V133.252C98.122 133.132 98.102 133.072 98.012 132.982L97.922 132.892C97.842 132.812 97.772 132.782 97.642 132.782H96.582C96.532 132.782 96.502 132.802 96.502 132.862V133.862C96.502 133.912 96.522 133.942 96.582 133.942H97.652V133.932Z" fill="#1F1D20"/>
<path opacity="0.2" d="M101.992 133.812C101.942 133.812 101.912 133.832 101.902 133.892L101.702 134.692C101.652 134.902 101.582 134.972 101.402 134.972H100.452C100.262 134.972 100.202 134.852 100.242 134.692L101.502 129.912C101.562 129.682 101.652 129.602 101.932 129.602H103.452C103.732 129.602 103.822 129.682 103.882 129.912L105.142 134.692C105.182 134.852 105.122 134.972 104.932 134.972H103.972C103.792 134.972 103.722 134.912 103.672 134.692L103.472 133.892C103.452 133.842 103.432 133.812 103.382 133.812H101.992ZM103.112 132.662C103.162 132.662 103.172 132.632 103.162 132.592L102.732 130.812C102.712 130.762 102.652 130.762 102.642 130.812L102.212 132.592C102.202 132.632 102.222 132.662 102.262 132.662H103.112Z" fill="#1F1D20"/>
<path opacity="0.2" d="M107.222 132.922C106.882 132.922 106.692 132.842 106.442 132.582L106.282 132.422C106.062 132.202 105.992 132.012 105.992 131.702V131.102C105.992 130.762 106.072 130.562 106.302 130.322L106.682 129.942C106.932 129.702 107.112 129.602 107.472 129.602H109.842C110.002 129.602 110.082 129.682 110.082 129.842V130.602C110.082 130.762 110.002 130.842 109.842 130.842H107.772C107.672 130.842 107.602 130.872 107.542 130.932L107.452 131.022C107.382 131.092 107.362 131.142 107.362 131.242V131.322C107.362 131.392 107.382 131.442 107.452 131.512L107.492 131.552C107.552 131.612 107.612 131.642 107.702 131.642H108.982C109.322 131.642 109.512 131.722 109.762 131.982L109.922 132.142C110.142 132.362 110.212 132.552 110.212 132.862V133.472C110.212 133.812 110.132 134.012 109.902 134.252L109.532 134.632C109.282 134.882 109.092 134.972 108.732 134.972H106.232C106.072 134.972 105.992 134.892 105.992 134.732V133.972C105.992 133.812 106.072 133.732 106.232 133.732H108.432C108.532 133.732 108.602 133.702 108.662 133.642L108.752 133.552C108.822 133.482 108.842 133.432 108.842 133.332V133.242C108.842 133.172 108.822 133.122 108.752 133.052L108.712 133.012C108.652 132.952 108.592 132.922 108.502 132.922H107.222V132.922Z" fill="#1F1D20"/>
<path opacity="0.2" d="M112.432 132.922C112.092 132.922 111.902 132.842 111.652 132.582L111.492 132.422C111.272 132.202 111.202 132.012 111.202 131.702V131.102C111.202 130.762 111.282 130.562 111.512 130.322L111.892 129.942C112.142 129.702 112.322 129.602 112.682 129.602H115.052C115.212 129.602 115.292 129.682 115.292 129.842V130.602C115.292 130.762 115.212 130.842 115.052 130.842H112.982C112.882 130.842 112.812 130.872 112.752 130.932L112.662 131.022C112.592 131.092 112.572 131.142 112.572 131.242V131.322C112.572 131.392 112.592 131.442 112.662 131.512L112.702 131.552C112.762 131.612 112.822 131.642 112.912 131.642H114.192C114.532 131.642 114.722 131.722 114.972 131.982L115.132 132.142C115.352 132.362 115.422 132.552 115.422 132.862V133.472C115.422 133.812 115.342 134.012 115.112 134.252L114.742 134.632C114.492 134.882 114.302 134.972 113.942 134.972H111.442C111.282 134.972 111.202 134.892 111.202 134.732V133.972C111.202 133.812 111.282 133.732 111.442 133.732H113.642C113.742 133.732 113.812 133.702 113.872 133.642L113.962 133.552C114.032 133.482 114.052 133.432 114.052 133.332V133.242C114.052 133.172 114.032 133.122 113.962 133.052L113.922 133.012C113.862 132.952 113.802 132.922 113.712 132.922H112.432V132.922Z" fill="#1F1D20"/>
<path opacity="0.2" d="M117.942 133.812C117.892 133.812 117.862 133.832 117.852 133.892L117.652 134.692C117.602 134.902 117.532 134.972 117.352 134.972H116.402C116.212 134.972 116.152 134.852 116.192 134.692L117.452 129.912C117.512 129.682 117.602 129.602 117.882 129.602H119.402C119.682 129.602 119.772 129.682 119.832 129.912L121.092 134.692C121.132 134.852 121.072 134.972 120.882 134.972H119.922C119.742 134.972 119.672 134.912 119.622 134.692L119.422 133.892C119.402 133.842 119.382 133.812 119.332 133.812H117.942ZM119.062 132.662C119.112 132.662 119.122 132.632 119.112 132.592L118.682 130.812C118.662 130.762 118.602 130.762 118.592 130.812L118.162 132.592C118.152 132.632 118.172 132.662 118.212 132.662H119.062Z" fill="#1F1D20"/>
<path opacity="0.2" d="M122.052 134.732V129.842C122.052 129.682 122.132 129.602 122.292 129.602H125.042C125.412 129.602 125.592 129.692 125.842 129.942L126.342 130.442C126.582 130.682 126.652 130.882 126.652 131.222V133.352C126.652 133.692 126.572 133.892 126.342 134.132L125.842 134.632C125.592 134.882 125.412 134.972 125.042 134.972H122.292C122.132 134.972 122.052 134.892 122.052 134.732ZM124.602 133.752C124.752 133.752 124.822 133.722 124.922 133.622L125.082 133.462C125.182 133.362 125.212 133.292 125.212 133.142V131.442C125.212 131.292 125.182 131.222 125.082 131.122L124.922 130.962C124.822 130.862 124.742 130.832 124.602 130.832H123.572C123.522 130.832 123.492 130.852 123.492 130.912V133.682C123.492 133.732 123.512 133.762 123.572 133.762H124.602V133.752Z" fill="#1F1D20"/>
<path opacity="0.2" d="M128.542 134.632L128.042 134.132C127.802 133.892 127.732 133.692 127.732 133.352V131.222C127.732 130.882 127.812 130.682 128.042 130.442L128.542 129.942C128.792 129.702 128.972 129.602 129.342 129.602H130.842C131.212 129.602 131.392 129.692 131.642 129.942L132.142 130.442C132.382 130.682 132.452 130.882 132.452 131.222V133.352C132.452 133.692 132.372 133.892 132.142 134.132L131.642 134.632C131.392 134.882 131.212 134.972 130.842 134.972H129.342C128.972 134.972 128.792 134.882 128.542 134.632ZM129.172 133.142C129.172 133.292 129.202 133.362 129.302 133.462L129.462 133.622C129.562 133.722 129.642 133.752 129.782 133.752H130.392C130.542 133.752 130.612 133.722 130.712 133.622L130.872 133.462C130.972 133.362 131.002 133.292 131.002 133.142V131.442C131.002 131.292 130.972 131.222 130.872 131.122L130.712 130.962C130.612 130.862 130.532 130.832 130.392 130.832H129.782C129.632 130.832 129.562 130.862 129.462 130.962L129.302 131.122C129.202 131.222 129.172 131.292 129.172 131.442V133.142Z" fill="#1F1D20"/>
<path opacity="0.2" d="M133.662 134.732V129.842C133.662 129.682 133.742 129.602 133.902 129.602H136.812C137.172 129.602 137.352 129.692 137.602 129.942L137.902 130.242C138.152 130.492 138.212 130.682 138.212 130.982V131.622C138.212 131.952 138.142 132.082 137.902 132.332L137.522 132.712C137.462 132.772 137.472 132.832 137.502 132.922L138.302 134.712C138.372 134.862 138.302 134.972 138.122 134.972H137.092C136.952 134.972 136.872 134.912 136.812 134.792L136.172 133.372C136.132 133.282 136.092 133.252 135.982 133.252H135.162C135.112 133.252 135.082 133.272 135.082 133.332V134.742C135.082 134.902 135.002 134.982 134.842 134.982H133.872C133.732 134.972 133.662 134.892 133.662 134.732ZM136.272 132.092C136.392 132.092 136.452 132.062 136.542 131.972L136.662 131.852C136.742 131.772 136.772 131.702 136.772 131.582V131.192C136.772 131.072 136.752 131.012 136.662 130.922L136.562 130.822C136.482 130.742 136.412 130.702 136.282 130.702H135.172C135.122 130.702 135.092 130.722 135.092 130.782V132.012C135.092 132.062 135.112 132.092 135.172 132.092H136.272Z" fill="#1F1D20"/>
<path d="M43.812 131.859C43.472 131.859 43.282 131.779 43.032 131.519L42.872 131.359C42.652 131.139 42.582 130.95 42.582 130.64V130.04C42.582 129.7 42.662 129.5 42.892 129.26L43.272 128.88C43.522 128.64 43.702 128.54 44.062 128.54H46.432C46.592 128.54 46.672 128.62 46.672 128.78V129.54C46.672 129.7 46.592 129.78 46.432 129.78H44.362C44.262 129.78 44.192 129.81 44.132 129.87L44.042 129.96C43.972 130.03 43.952 130.08 43.952 130.18V130.26C43.952 130.33 43.972 130.38 44.042 130.45L44.082 130.49C44.142 130.55 44.202 130.58 44.292 130.58H45.572C45.912 130.58 46.102 130.66 46.352 130.92L46.512 131.08C46.732 131.299 46.802 131.489 46.802 131.799V132.409C46.802 132.749 46.722 132.949 46.492 133.189L46.122 133.569C45.872 133.819 45.682 133.909 45.322 133.909H42.822C42.662 133.909 42.582 133.829 42.582 133.669V132.909C42.582 132.749 42.662 132.669 42.822 132.669H45.022C45.122 132.669 45.192 132.639 45.252 132.579L45.342 132.489C45.412 132.419 45.432 132.369 45.432 132.269V132.179C45.432 132.109 45.412 132.059 45.342 131.989L45.302 131.949C45.242 131.889 45.182 131.859 45.092 131.859H43.812V131.859Z" fill="white"/>
<path d="M49.132 133.669V129.86C49.132 129.81 49.1121 129.78 49.0521 129.78H47.8721C47.7121 129.78 47.6321 129.7 47.6321 129.54V128.78C47.6321 128.62 47.7121 128.54 47.8721 128.54H51.822C51.982 128.54 52.062 128.62 52.062 128.78V129.54C52.062 129.7 51.982 129.78 51.822 129.78H50.642C50.592 129.78 50.562 129.8 50.562 129.86V133.669C50.562 133.829 50.482 133.909 50.322 133.909H49.372C49.212 133.909 49.132 133.829 49.132 133.669Z" fill="white"/>
<path d="M54.652 133.909C54.282 133.909 54.102 133.819 53.852 133.569L53.352 133.069C53.112 132.829 53.042 132.629 53.042 132.289V128.78C53.042 128.62 53.122 128.54 53.282 128.54H54.252C54.412 128.54 54.492 128.62 54.492 128.78V132.039C54.492 132.189 54.522 132.259 54.622 132.359L54.782 132.519C54.882 132.619 54.962 132.649 55.102 132.649H55.432C55.582 132.649 55.652 132.619 55.752 132.519L55.912 132.359C56.012 132.259 56.042 132.189 56.042 132.039V128.78C56.042 128.62 56.122 128.54 56.282 128.54H57.242C57.402 128.54 57.482 128.62 57.482 128.78V132.289C57.482 132.629 57.402 132.829 57.172 133.069L56.672 133.569C56.422 133.819 56.242 133.909 55.872 133.909H54.652Z" fill="white"/>
<path d="M58.7321 133.669V128.78C58.7321 128.62 58.8121 128.54 58.9721 128.54H61.7221C62.0921 128.54 62.2721 128.63 62.5221 128.88L63.0221 129.38C63.2621 129.62 63.3321 129.82 63.3321 130.16V132.289C63.3321 132.629 63.2521 132.829 63.0221 133.069L62.5221 133.569C62.2721 133.819 62.0921 133.909 61.7221 133.909H58.9721C58.8121 133.909 58.7321 133.829 58.7321 133.669ZM61.2821 132.689C61.4321 132.689 61.5021 132.659 61.6021 132.559L61.7621 132.399C61.8621 132.299 61.8921 132.229 61.8921 132.079V130.38C61.8921 130.23 61.8621 130.16 61.7621 130.06L61.6021 129.9C61.5021 129.8 61.4221 129.77 61.2821 129.77H60.2521C60.2021 129.77 60.1721 129.79 60.1721 129.85V132.619C60.1721 132.669 60.1921 132.699 60.2521 132.699H61.2821V132.689Z" fill="white"/>
<path d="M64.532 133.669V128.78C64.532 128.62 64.612 128.54 64.772 128.54H68.2621C68.4221 128.54 68.5021 128.62 68.5021 128.78V129.54C68.5021 129.7 68.4221 129.78 68.2621 129.78H66.052C66.002 129.78 65.972 129.8 65.972 129.86V130.51C65.972 130.56 65.992 130.59 66.052 130.59H67.9221C68.0821 130.59 68.1621 130.67 68.1621 130.83V131.549C68.1621 131.709 68.0821 131.789 67.9221 131.789H66.052C66.002 131.789 65.972 131.809 65.972 131.869V132.609C65.972 132.659 65.992 132.689 66.052 132.689H68.2621C68.4221 132.689 68.5021 132.769 68.5021 132.929V133.689C68.5021 133.849 68.4221 133.929 68.2621 133.929H64.772C64.612 133.909 64.532 133.829 64.532 133.669Z" fill="white"/>
<path d="M69.722 133.669V128.78C69.722 128.62 69.802 128.54 69.962 128.54H70.892C71.082 128.54 71.172 128.6 71.272 128.76L72.702 131.329C72.722 131.379 72.782 131.359 72.782 131.309V128.77C72.782 128.61 72.852 128.53 73.022 128.53H73.942C74.102 128.53 74.182 128.61 74.182 128.77V133.659C74.182 133.819 74.102 133.899 73.942 133.899H73.012C72.822 133.899 72.732 133.839 72.632 133.679L71.202 131.109C71.182 131.059 71.122 131.079 71.122 131.129V133.669C71.122 133.829 71.052 133.909 70.882 133.909H69.962C69.802 133.909 69.722 133.829 69.722 133.669Z" fill="white"/>
<path d="M76.732 133.669V129.86C76.732 129.81 76.712 129.78 76.652 129.78H75.472C75.3121 129.78 75.2321 129.7 75.2321 129.54V128.78C75.2321 128.62 75.3121 128.54 75.472 128.54H79.422C79.582 128.54 79.662 128.62 79.662 128.78V129.54C79.662 129.7 79.582 129.78 79.422 129.78H78.242C78.192 129.78 78.162 129.8 78.162 129.86V133.669C78.162 133.829 78.082 133.909 77.922 133.909H76.972C76.812 133.909 76.732 133.829 76.732 133.669Z" fill="white"/>
<path d="M84.102 132.749C84.052 132.749 84.022 132.769 84.012 132.829L83.812 133.629C83.762 133.839 83.692 133.909 83.512 133.909H82.562C82.372 133.909 82.312 133.789 82.352 133.629L83.612 128.85C83.672 128.62 83.762 128.54 84.042 128.54H85.562C85.842 128.54 85.932 128.62 85.992 128.85L87.2519 133.629C87.2919 133.789 87.2319 133.909 87.0419 133.909H86.082C85.902 133.909 85.832 133.849 85.782 133.629L85.582 132.829C85.562 132.779 85.542 132.749 85.492 132.749H84.102ZM85.222 131.599C85.272 131.599 85.282 131.569 85.272 131.529L84.842 129.75C84.822 129.7 84.762 129.7 84.752 129.75L84.322 131.529C84.312 131.569 84.332 131.599 84.372 131.599H85.222Z" fill="white"/>
<path d="M88.2219 133.669V128.78C88.2219 128.62 88.3019 128.54 88.4619 128.54H89.642C89.832 128.54 89.902 128.58 89.982 128.75L90.932 130.709C90.952 130.759 91.002 130.759 91.022 130.709L91.962 128.75C92.042 128.57 92.122 128.54 92.302 128.54H93.4921C93.6521 128.54 93.7321 128.62 93.7321 128.78V133.669C93.7321 133.829 93.6521 133.909 93.4921 133.909H92.552C92.392 133.909 92.312 133.829 92.312 133.669V130.84C92.312 130.79 92.252 130.769 92.232 130.819L91.282 132.819C91.232 132.939 91.142 132.979 91.012 132.979H90.932C90.802 132.979 90.722 132.929 90.672 132.819L89.722 130.819C89.702 130.769 89.642 130.79 89.642 130.84V133.669C89.642 133.829 89.562 133.909 89.402 133.909H88.4619C88.3019 133.909 88.2219 133.829 88.2219 133.669Z" fill="white"/>
<path d="M95.062 133.669V128.78C95.062 128.62 95.142 128.54 95.302 128.54H98.082C98.442 128.54 98.622 128.63 98.872 128.88L99.172 129.18C99.422 129.43 99.482 129.62 99.482 129.92V130.1C99.482 130.39 99.422 130.58 99.172 130.84L98.922 131.09C98.862 131.15 98.862 131.199 98.922 131.269L99.242 131.589C99.492 131.839 99.552 132.029 99.552 132.329V132.559C99.552 132.849 99.482 133.049 99.242 133.299L98.942 133.599C98.692 133.849 98.512 133.939 98.152 133.939H95.292C95.142 133.909 95.062 133.829 95.062 133.669ZM97.562 130.67C97.682 130.67 97.752 130.65 97.842 130.56L97.942 130.46C98.022 130.38 98.052 130.31 98.052 130.19V130.06C98.052 129.94 98.032 129.88 97.942 129.79L97.852 129.7C97.772 129.62 97.702 129.58 97.582 129.58H96.582C96.532 129.58 96.502 129.6 96.502 129.66V130.59C96.502 130.64 96.522 130.67 96.582 130.67H97.562ZM97.652 132.869C97.772 132.869 97.832 132.829 97.922 132.759L98.012 132.669C98.092 132.589 98.122 132.519 98.122 132.399V132.189C98.122 132.069 98.102 132.009 98.012 131.919L97.922 131.829C97.842 131.749 97.772 131.719 97.642 131.719H96.582C96.532 131.719 96.502 131.739 96.502 131.799V132.799C96.502 132.849 96.522 132.879 96.582 132.879H97.652V132.869Z" fill="white"/>
<path d="M101.992 132.749C101.942 132.749 101.912 132.769 101.902 132.829L101.702 133.629C101.652 133.839 101.582 133.909 101.402 133.909H100.452C100.262 133.909 100.202 133.789 100.242 133.629L101.502 128.85C101.562 128.62 101.652 128.54 101.932 128.54H103.452C103.732 128.54 103.822 128.62 103.882 128.85L105.142 133.629C105.182 133.789 105.122 133.909 104.932 133.909H103.972C103.792 133.909 103.722 133.849 103.672 133.629L103.472 132.829C103.452 132.779 103.432 132.749 103.382 132.749H101.992ZM103.112 131.599C103.162 131.599 103.172 131.569 103.162 131.529L102.732 129.75C102.712 129.7 102.652 129.7 102.642 129.75L102.212 131.529C102.202 131.569 102.222 131.599 102.262 131.599H103.112Z" fill="white"/>
<path d="M107.222 131.859C106.882 131.859 106.692 131.779 106.442 131.519L106.282 131.359C106.062 131.139 105.992 130.95 105.992 130.64V130.04C105.992 129.7 106.072 129.5 106.302 129.26L106.682 128.88C106.932 128.64 107.112 128.54 107.472 128.54H109.842C110.002 128.54 110.082 128.62 110.082 128.78V129.54C110.082 129.7 110.002 129.78 109.842 129.78H107.772C107.672 129.78 107.602 129.81 107.542 129.87L107.452 129.96C107.382 130.03 107.362 130.08 107.362 130.18V130.26C107.362 130.33 107.382 130.38 107.452 130.45L107.492 130.49C107.552 130.55 107.612 130.58 107.702 130.58H108.982C109.322 130.58 109.512 130.66 109.762 130.92L109.922 131.08C110.142 131.299 110.212 131.489 110.212 131.799V132.409C110.212 132.749 110.132 132.949 109.902 133.189L109.532 133.569C109.282 133.819 109.092 133.909 108.732 133.909H106.232C106.072 133.909 105.992 133.829 105.992 133.669V132.909C105.992 132.749 106.072 132.669 106.232 132.669H108.432C108.532 132.669 108.602 132.639 108.662 132.579L108.752 132.489C108.822 132.419 108.842 132.369 108.842 132.269V132.179C108.842 132.109 108.822 132.059 108.752 131.989L108.712 131.949C108.652 131.889 108.592 131.859 108.502 131.859H107.222V131.859Z" fill="white"/>
<path d="M112.432 131.859C112.092 131.859 111.902 131.779 111.652 131.519L111.492 131.359C111.272 131.139 111.202 130.95 111.202 130.64V130.04C111.202 129.7 111.282 129.5 111.512 129.26L111.892 128.88C112.142 128.64 112.322 128.54 112.682 128.54H115.052C115.212 128.54 115.292 128.62 115.292 128.78V129.54C115.292 129.7 115.212 129.78 115.052 129.78H112.982C112.882 129.78 112.812 129.81 112.752 129.87L112.662 129.96C112.592 130.03 112.572 130.08 112.572 130.18V130.26C112.572 130.33 112.592 130.38 112.662 130.45L112.702 130.49C112.762 130.55 112.822 130.58 112.912 130.58H114.192C114.532 130.58 114.722 130.66 114.972 130.92L115.132 131.08C115.352 131.299 115.422 131.489 115.422 131.799V132.409C115.422 132.749 115.342 132.949 115.112 133.189L114.742 133.569C114.492 133.819 114.302 133.909 113.942 133.909H111.442C111.282 133.909 111.202 133.829 111.202 133.669V132.909C111.202 132.749 111.282 132.669 111.442 132.669H113.642C113.742 132.669 113.812 132.639 113.872 132.579L113.962 132.489C114.032 132.419 114.052 132.369 114.052 132.269V132.179C114.052 132.109 114.032 132.059 113.962 131.989L113.922 131.949C113.862 131.889 113.802 131.859 113.712 131.859H112.432V131.859Z" fill="white"/>
<path d="M117.942 132.749C117.892 132.749 117.862 132.769 117.852 132.829L117.652 133.629C117.602 133.839 117.532 133.909 117.352 133.909H116.402C116.212 133.909 116.152 133.789 116.192 133.629L117.452 128.85C117.512 128.62 117.602 128.54 117.882 128.54H119.402C119.682 128.54 119.772 128.62 119.832 128.85L121.092 133.629C121.132 133.789 121.072 133.909 120.882 133.909H119.922C119.742 133.909 119.672 133.849 119.622 133.629L119.422 132.829C119.402 132.779 119.382 132.749 119.332 132.749H117.942ZM119.062 131.599C119.112 131.599 119.122 131.569 119.112 131.529L118.682 129.75C118.662 129.7 118.602 129.7 118.592 129.75L118.162 131.529C118.152 131.569 118.172 131.599 118.212 131.599H119.062Z" fill="white"/>
<path d="M122.052 133.669V128.78C122.052 128.62 122.132 128.54 122.292 128.54H125.042C125.412 128.54 125.592 128.63 125.842 128.88L126.342 129.38C126.582 129.62 126.652 129.82 126.652 130.16V132.289C126.652 132.629 126.572 132.829 126.342 133.069L125.842 133.569C125.592 133.819 125.412 133.909 125.042 133.909H122.292C122.132 133.909 122.052 133.829 122.052 133.669ZM124.602 132.689C124.752 132.689 124.822 132.659 124.922 132.559L125.082 132.399C125.182 132.299 125.212 132.229 125.212 132.079V130.38C125.212 130.23 125.182 130.16 125.082 130.06L124.922 129.9C124.822 129.8 124.742 129.77 124.602 129.77H123.572C123.522 129.77 123.492 129.79 123.492 129.85V132.619C123.492 132.669 123.512 132.699 123.572 132.699H124.602V132.689Z" fill="white"/>
<path d="M128.542 133.569L128.042 133.069C127.802 132.829 127.732 132.629 127.732 132.289V130.16C127.732 129.82 127.812 129.62 128.042 129.38L128.542 128.88C128.792 128.64 128.972 128.54 129.342 128.54H130.842C131.212 128.54 131.392 128.63 131.642 128.88L132.142 129.38C132.382 129.62 132.452 129.82 132.452 130.16V132.289C132.452 132.629 132.372 132.829 132.142 133.069L131.642 133.569C131.392 133.819 131.212 133.909 130.842 133.909H129.342C128.972 133.909 128.792 133.819 128.542 133.569ZM129.172 132.079C129.172 132.229 129.202 132.299 129.302 132.399L129.462 132.559C129.562 132.659 129.642 132.689 129.782 132.689H130.392C130.542 132.689 130.612 132.659 130.712 132.559L130.872 132.399C130.972 132.299 131.002 132.229 131.002 132.079V130.38C131.002 130.23 130.972 130.16 130.872 130.06L130.712 129.9C130.612 129.8 130.532 129.77 130.392 129.77H129.782C129.632 129.77 129.562 129.8 129.462 129.9L129.302 130.06C129.202 130.16 129.172 130.23 129.172 130.38V132.079Z" fill="white"/>
<path d="M133.662 133.669V128.78C133.662 128.62 133.742 128.54 133.902 128.54H136.812C137.172 128.54 137.352 128.63 137.602 128.88L137.902 129.18C138.152 129.43 138.212 129.62 138.212 129.92V130.56C138.212 130.89 138.142 131.019 137.902 131.269L137.522 131.649C137.462 131.709 137.472 131.769 137.502 131.859L138.302 133.649C138.372 133.799 138.302 133.909 138.122 133.909H137.092C136.952 133.909 136.872 133.849 136.812 133.729L136.172 132.309C136.132 132.219 136.092 132.189 135.982 132.189H135.162C135.112 132.189 135.082 132.209 135.082 132.269V133.679C135.082 133.839 135.002 133.919 134.842 133.919H133.872C133.732 133.909 133.662 133.829 133.662 133.669ZM136.272 131.029C136.392 131.029 136.452 130.999 136.542 130.909L136.662 130.789C136.742 130.71 136.772 130.639 136.772 130.52V130.13C136.772 130.01 136.752 129.95 136.662 129.86L136.562 129.76C136.482 129.68 136.412 129.64 136.282 129.64H135.172C135.122 129.64 135.092 129.66 135.092 129.72V130.949C135.092 130.999 135.112 131.029 135.172 131.029H136.272Z" fill="white"/>
<path d="M126.756 45.7637L128.254 43.9378L127.543 41.6401L119.816 41.6196L119.604 42.0299L119.522 41.647H111.698L111.534 42.0573L111.473 41.688H103.629L103.445 42.0436L103.41 41.729H95.519L95.4164 42.1188L95.3549 41.7769H87.5455V42.1188L87.2925 41.7906H79.4832L79.4627 42.1188L79.2507 41.7838H75.4144L75.2161 43.8147C75.2161 43.8147 74.963 43.5412 74.8468 43.254C74.7305 42.9668 74.3749 42.1735 74.3476 42.0641C74.3202 41.9547 74.2929 41.7906 74.2929 41.7906L70.5045 41.7632L70.4703 42.1188C70.4703 42.1188 70.354 42.0573 70.2993 41.9547C70.2446 41.8521 70.2104 41.7701 70.2104 41.7701H66.4972L66.3536 42.112L66.2168 41.7496H62.4694L62.0455 43.466L61.0471 43.4181L60.8351 44.1293L59.1255 41.7496H55.5559L52.4513 51.3916L55.7405 54.4415H59.2965L59.9119 52.2464L60.0555 52.6294H61.1086L62.7224 54.4963H66.3604L66.4357 54.0244L66.6203 54.4074H68.3025L68.8291 51.8772H112.246L112.635 54.2296L112.772 54.3458L115.384 54.339L117.518 51.2891L117.463 50.7557H118.619L120.287 48.458L121.655 54.3321H125.402L128.459 51.2549L126.756 45.7637ZM95.266 48.711L91.4707 48.7315V47.4322L95.266 47.4117V48.711Z" fill="#1B1E20"/>
<path d="M119.152 42.1189C119.152 42.1189 112.451 42.1189 112.259 42.1189C112.068 42.1189 112.102 42.3377 112.129 42.4608C112.157 42.5907 113.757 50.8104 113.771 50.9062C113.784 51.0019 113.901 50.9951 113.901 50.9951L116.998 51.0498C116.998 51.0498 117.005 50.9062 116.992 50.8104C116.978 50.7147 116.28 47.3571 116.28 47.3571L116.506 47.3502L120.377 47.3571C120.377 47.3571 120.452 47.3366 120.377 47.0562C120.301 46.7758 120.021 45.6885 120.007 45.5859C119.994 45.4834 119.973 45.4492 119.788 45.4287C119.604 45.4081 115.85 45.4765 115.85 45.4765C115.85 45.4765 115.494 43.8353 115.508 43.7875C115.521 43.7396 115.733 43.7601 115.733 43.7601C115.733 43.7601 119.501 43.7943 119.535 43.7943C119.57 43.7943 119.563 43.6575 119.529 43.5208C119.494 43.384 119.152 42.1189 119.152 42.1189Z" fill="#ACACAD"/>
<path d="M78.9774 42.2009L78.0132 51.0155H74.7581L75.1342 48.205L74.1084 48.2187L74.3546 46.4475L73.9717 46.386L73.322 46.427L72.6108 50.9472L72.4535 51.0634L69.4515 51.0429L69.3352 51.0019L70.9696 42.1941H73.9648L73.6913 43.8079H74.7854L74.4914 45.5175H75.5171L76.0369 42.1736L78.9774 42.2009Z" fill="#ACACAD"/>
<path d="M58.2025 49.135L58.0178 49.2102C58.0178 49.2102 58.6811 50.024 59.0641 50.4753C59.447 50.9267 60.2403 51.7747 60.3771 51.8977C60.5138 52.0208 60.7737 51.9798 60.8489 51.9798C60.931 51.9866 61.0062 51.973 61.0062 51.973L61.0541 50.5437L60.0693 49.1487L58.2025 49.135Z" fill="#363636"/>
<path d="M65.9024 42.2283H62.914L62.4969 43.9447L61.4848 43.9789L61.0471 45.5586H58.8862L59.4948 43.8285H58.4212L58.9272 42.2761H55.891L53.1556 51.084L53.4087 51.043L56.2534 51.0157L56.3423 50.9883L57.4707 47.3503L58.4622 47.4118L57.9972 49.0667L58.1203 49.1351L60.1034 49.1761L60.5753 47.3571L61.5532 47.3503L60.7531 51.084L63.8987 51.0157L65.9024 42.2283Z" fill="#ACACAD"/>
<path d="M86.848 43.6985L86.978 42.1667L79.9687 42.2078L79.0797 50.9471L79.1823 51.0292H86.6292L86.6566 49.176L82.492 49.1897L82.6014 47.2408L86.7386 47.3023L86.8002 45.6064H82.7519L82.8203 43.7874L83.1006 43.7122L86.848 43.6985Z" fill="#ACACAD"/>
<path d="M68.1931 50.9813L64.9858 51.0087L66.9485 42.1599H69.9096L68.1931 50.9813Z" fill="#ACACAD"/>
<path d="M112.123 51.6174L68.7471 51.6585C68.6514 51.6585 68.5761 51.72 68.5556 51.8157L67.2905 57.6829L67.2632 58.1821L68.4052 59.9396C68.4531 60.0148 68.5283 60.0558 68.6172 60.0558H112.116C112.198 60.0558 112.273 60.0148 112.314 59.9464L113.47 58.1001L113.483 57.6624L112.355 51.8089C112.328 51.6927 112.232 51.6174 112.123 51.6174Z" fill="black"/>
<path d="M111.938 52.1506H68.8565L67.6119 57.8675H113.005L111.938 52.1506Z" fill="#7DA6C5"/>
<path d="M113.005 57.8674H67.6119L67.6735 58.1341L68.6514 59.6727H111.938L113.005 57.8674Z" fill="#30444E"/>
<path d="M99.3761 54.8861C99.3555 54.3527 98.9179 53.9287 98.3845 53.9287H96.8663L96.9142 56.2811H98.6033C99.0478 56.2811 99.4102 55.9118 99.3897 55.4673L99.3761 54.8861ZM98.2956 55.7408H97.7348L97.6801 54.3458H98.0973C98.3982 54.3458 98.6443 54.5852 98.6512 54.8792L98.6717 55.3374C98.6854 55.563 98.5076 55.7408 98.2956 55.7408Z" fill="#51606C"/>
<path d="M79.8662 55.4605L79.9072 54.804C79.9209 54.6126 80.0782 54.4621 80.2696 54.4621H81.1518L81.186 53.9014H80.2012C79.6542 53.9014 79.196 54.3253 79.1618 54.8724L79.1208 55.4947C79.0934 55.9392 79.4422 56.3153 79.8867 56.3153H81.0355L81.0629 55.8571H80.2354C80.0234 55.8571 79.8525 55.6725 79.8662 55.4605Z" fill="#51606C"/>
<path d="M78.143 53.9014L77.9926 55.44C77.9721 55.652 77.7874 55.8161 77.5754 55.8161H77.4455C77.2609 55.8161 77.1173 55.6588 77.1309 55.4742L77.2814 53.9014H76.5428L76.3787 55.5699C76.3377 55.9734 76.6523 56.3222 77.0557 56.3222H77.7943C78.2661 56.3222 78.6696 55.9597 78.7106 55.4879L78.8679 53.9082H78.143V53.9014Z" fill="#51606C"/>
<path d="M73.2672 54.51L73.363 53.9014H71.2909L70.9285 56.3153H72.9937L73.0689 55.8298H71.7628L71.8243 55.4332H72.9458L73.0347 54.8587H71.9064L71.9611 54.51H73.2672Z" fill="#51606C"/>
<path d="M75.2845 53.9014H73.7458L73.4449 56.3153H74.9972C75.517 56.3153 75.9615 55.9255 76.023 55.4058L76.0982 54.8177C76.1598 54.3322 75.7837 53.9014 75.2845 53.9014ZM75.2708 55.4742C75.2503 55.6793 75.0793 55.8298 74.8742 55.8298H74.2792L74.4502 54.4689H75.0451C75.2161 54.4689 75.3528 54.6194 75.3392 54.7904L75.2708 55.4742Z" fill="#51606C"/>
<path d="M86.2188 53.9014H83.887V54.5373H84.646V56.3153H85.4119V54.5373H86.2188V53.9014Z" fill="#51606C"/>
<path d="M89.2485 53.9014H88.8382C88.2501 53.9014 87.7714 54.3801 87.7714 54.9682V55.4674C87.7714 55.9392 88.1543 56.3153 88.6193 56.3153H89.4605C89.9323 56.3153 90.3084 55.9324 90.3084 55.4674V54.9682C90.3153 54.3801 89.8366 53.9014 89.2485 53.9014ZM89.5425 55.3785C89.5425 55.6383 89.3305 55.8435 89.0775 55.8435H88.9818C88.7219 55.8435 88.5168 55.6315 88.5168 55.3785V54.8793C88.5168 54.6536 88.6946 54.4758 88.9202 54.4758H89.1459C89.3716 54.4758 89.5494 54.6536 89.5494 54.8793V55.3785H89.5425Z" fill="#51606C"/>
<path d="M92.2778 56.3016H93.0437L92.9958 53.9082H92.2846V55.187L91.3956 53.9082H90.6571V56.3016H91.4367V55.1186L92.2778 56.3016Z" fill="#51606C"/>
<path d="M100.395 53.9287H99.6632L99.8547 56.2811H100.586L100.395 53.9287Z" fill="#51606C"/>
<path d="M104.259 53.9287H103.513L103.705 56.2811H104.45L104.259 53.9287Z" fill="#51606C"/>
<path d="M102.405 54.4211H103.123L103.082 53.9287H100.798L100.839 54.4211H101.598L101.749 56.2811H102.563L102.405 54.4211Z" fill="#51606C"/>
<path d="M107.308 55.5562L107.254 54.8724C107.213 54.339 106.768 53.9287 106.235 53.9287H105.38C105.024 53.9287 104.737 54.2364 104.765 54.592L104.826 55.3305C104.867 55.8708 105.318 56.2811 105.859 56.2811H106.638C107.028 56.2811 107.336 55.946 107.308 55.5562ZM106.276 55.7682H105.989C105.749 55.7682 105.558 55.5836 105.537 55.3511L105.489 54.7972C105.469 54.5852 105.64 54.4005 105.859 54.4005H106.016C106.276 54.4005 106.488 54.5989 106.508 54.8587L106.556 55.4673C106.57 55.6314 106.44 55.7682 106.276 55.7682Z" fill="#51606C"/>
<path d="M95.1294 55.3442H96.2235V54.8245H95.1294V54.4553H96.4081V53.9287H94.425V56.2811H96.4081V55.8092H95.1294V55.3442Z" fill="#51606C"/>
<path d="M110.174 56.2811L109.886 53.9287H109.134L109.285 55.1459L108.314 53.9287H107.568L107.848 56.2811H108.601L108.457 55.1254L109.421 56.2811H110.174Z" fill="#51606C"/>
<path d="M83.0598 56.3153H83.8462L83.3196 53.9014H82.1844L81.2271 56.3153H82.0203L82.205 55.7888H82.9504L83.0598 56.3153ZM82.3759 55.3101L82.67 54.4621L82.8478 55.3101H82.3759Z" fill="#51606C"/>
<path d="M87.3473 53.9014H86.5814V56.3153H87.3473V53.9014Z" fill="#51606C"/>
<path d="M79.8662 55.2896L79.9072 54.6331C79.9209 54.4417 80.0782 54.2912 80.2696 54.2912H81.1518L81.186 53.7305H80.2012C79.6542 53.7305 79.196 54.1544 79.1618 54.7015L79.1208 55.3238C79.0934 55.7683 79.4422 56.1444 79.8867 56.1444H81.0355L81.0629 55.6862H80.2354C80.0234 55.6862 79.8525 55.5016 79.8662 55.2896Z" fill="#FBFBFB"/>
<path d="M78.143 53.7305L77.9926 55.2691C77.9721 55.4811 77.7874 55.6452 77.5754 55.6452H77.4455C77.2609 55.6452 77.1173 55.4879 77.1309 55.3033L77.2814 53.7305H76.5428L76.3787 55.399C76.3377 55.8025 76.6523 56.1513 77.0557 56.1513H77.7943C78.2661 56.1513 78.6696 55.7888 78.7106 55.317L78.8679 53.7373H78.143V53.7305Z" fill="#FBFBFB"/>
<path d="M73.2672 54.3391L73.363 53.7305H71.2909L70.9285 56.1444H72.9937L73.0689 55.6589H71.7628L71.8243 55.2623H72.9458L73.0347 54.681H71.9064L71.9611 54.3391H73.2672Z" fill="#FBFBFB"/>
<path d="M75.2845 53.7305H73.7458L73.4449 56.1444H74.9972C75.517 56.1444 75.9615 55.7546 76.023 55.2349L76.0982 54.6468C76.1598 54.1613 75.7837 53.7305 75.2845 53.7305ZM75.2708 55.3033C75.2503 55.5084 75.0793 55.6589 74.8742 55.6589H74.2792L74.4502 54.2981H75.0451C75.2161 54.2981 75.3528 54.4485 75.3392 54.6195L75.2708 55.3033Z" fill="#FBFBFB"/>
<path d="M86.2188 53.7305H83.887V54.3664H84.646V56.1444H85.4119V54.3664H86.2188V53.7305Z" fill="#FBFBFB"/>
<path d="M89.2485 53.7305H88.8382C88.2501 53.7305 87.7714 54.2092 87.7714 54.7973V55.2965C87.7714 55.7683 88.1543 56.1444 88.6193 56.1444H89.4605C89.9323 56.1444 90.3084 55.7615 90.3084 55.2965V54.7973C90.3153 54.2023 89.8366 53.7305 89.2485 53.7305ZM89.5425 55.2076C89.5425 55.4674 89.3305 55.6726 89.0775 55.6726H88.9818C88.7219 55.6726 88.5168 55.4606 88.5168 55.2076V54.7084C88.5168 54.4827 88.6946 54.3049 88.9202 54.3049H89.1459C89.3716 54.3049 89.5494 54.4827 89.5494 54.7084V55.2076H89.5425Z" fill="#FBFBFB"/>
<path d="M92.2778 56.1307H93.0437L92.9958 53.7373H92.2846V55.0161L91.3956 53.7373H90.6571V56.1307H91.4367V54.9477L92.2778 56.1307Z" fill="#FBFBFB"/>
<path d="M100.395 53.7578H99.6632L99.8547 56.1102H100.586L100.395 53.7578Z" fill="#FBFBFB"/>
<path d="M104.259 53.7578H103.513L103.705 56.1102H104.45L104.259 53.7578Z" fill="#FBFBFB"/>
<path d="M102.405 54.2433H103.123L103.082 53.7578H100.798L100.839 54.2433H101.598L101.749 56.1102H102.563L102.405 54.2433Z" fill="#FBFBFB"/>
<path d="M107.308 55.3853L107.254 54.7015C107.213 54.1681 106.768 53.7578 106.235 53.7578H105.38C105.024 53.7578 104.737 54.0655 104.765 54.4211L104.826 55.1596C104.867 55.6999 105.318 56.1102 105.859 56.1102H106.638C107.028 56.1102 107.336 55.7751 107.308 55.3853ZM106.276 55.5973H105.989C105.749 55.5973 105.558 55.4127 105.537 55.1802L105.489 54.6263C105.469 54.4143 105.64 54.2296 105.859 54.2296H106.016C106.276 54.2296 106.488 54.428 106.508 54.6878L106.556 55.2964C106.57 55.4537 106.44 55.5973 106.276 55.5973Z" fill="#FBFBFB"/>
<path d="M95.1294 55.1665H96.2235V54.6468H95.1294V54.2775H96.4081V53.7578H94.425V56.1102H96.4081V55.6383H95.1294V55.1665Z" fill="#FBFBFB"/>
<path d="M110.174 56.1102L109.886 53.7578H109.134L109.285 54.975L108.314 53.7578H107.568L107.848 56.1102H108.601L108.457 54.9545L109.421 56.1102H110.174Z" fill="#FBFBFB"/>
<path d="M83.0598 56.1444H83.8462L83.3196 53.7305H82.1844L81.2271 56.1444H82.0203L82.205 55.6179H82.9504L83.0598 56.1444ZM82.3759 55.1392L82.67 54.2912L82.8478 55.1392H82.3759Z" fill="#FBFBFB"/>
<path d="M87.3473 53.7305H86.5814V56.1444H87.3473V53.7305Z" fill="#FBFBFB"/>
<path d="M99.3761 54.7152C99.3555 54.1818 98.9179 53.7578 98.3845 53.7578H96.8663L96.9142 56.1102H98.6033C99.0478 56.1102 99.4102 55.7409 99.3897 55.2964L99.3761 54.7152ZM98.2956 55.5699H97.7348L97.6801 54.1749H98.0973C98.3982 54.1749 98.6443 54.4143 98.6512 54.7083L98.6717 55.1665C98.6854 55.3921 98.5076 55.5699 98.2956 55.5699Z" fill="#FBFBFB"/>
<path d="M53.4088 51.0427L53.2241 51.1316C53.2241 51.1316 55.556 53.4977 55.6791 53.6344C55.8091 53.7644 56.1236 53.9285 56.3356 53.9285C56.5476 53.9285 58.0999 53.9285 58.3529 53.9285C58.606 53.9285 58.688 53.7917 58.5649 53.6139C58.4418 53.4361 56.2125 51.0974 56.2125 51.0974L53.4088 51.0427Z" fill="#4F4F50"/>
<path d="M60.8421 51.0154L60.6711 51.1111C60.6711 51.1111 62.1756 53.06 62.4081 53.3472C62.6406 53.6344 62.9141 53.9011 63.427 53.9011C63.9399 53.9011 65.1913 53.9011 65.3622 53.9011C65.5332 53.9011 65.7657 53.8122 65.458 53.4156C65.1503 53.019 63.7826 51.0564 63.7826 51.0564L60.8421 51.0154Z" fill="#4F4F50"/>
<path d="M65.1092 51.0017L64.9724 51.0838C64.9724 51.0838 66.4905 53.06 66.7024 53.3336C66.9144 53.6139 67.1743 53.7302 67.3794 53.737C67.5846 53.7438 68.1658 53.737 68.1658 53.737L68.5829 51.5624L68.0701 51.0222L65.1092 51.0017Z" fill="#4F4F50"/>
<path d="M69.5677 51.0359L69.3625 51.0906L69.7523 51.665H72.9321L72.4535 51.0632L69.5677 51.0359Z" fill="#4F4F50"/>
<path d="M75.0246 51.0017L74.8878 51.2684L75.1066 51.6787H78.2113L77.7395 51.0838L75.0246 51.0017Z" fill="#4F4F50"/>
<path d="M79.2644 51.0498C79.2644 51.0498 79.0797 51.2344 79.0797 51.2549C79.0797 51.2755 79.0934 51.4327 79.0866 51.4464C79.0797 51.4669 79.1344 51.5763 79.1344 51.5763L79.3259 51.6926H86.5609C86.5609 51.6926 86.5541 51.4601 86.5404 51.4122C86.5268 51.3644 86.431 51.2208 86.4173 51.1934C86.4037 51.166 86.2532 51.0498 86.2532 51.0498H79.2644Z" fill="#4F4F50"/>
<path d="M88.0996 51.0291C88.0996 51.0291 87.9355 51.1248 87.8671 51.2068C87.7988 51.2889 87.8056 51.3436 87.7988 51.3641C87.7919 51.3846 87.8124 51.665 87.8124 51.665H95.3824C95.3824 51.665 95.4166 51.4393 95.3893 51.3504C95.3756 51.3162 95.273 51.0564 95.0884 51.0427C94.8969 51.0291 88.0996 51.0291 88.0996 51.0291Z" fill="#4F4F50"/>
<path d="M96.8116 51.0223C96.8116 51.0223 96.6132 51.1112 96.497 51.2138C96.3807 51.3163 96.3534 51.4121 96.3534 51.46C96.3534 51.5078 96.3534 51.6104 96.3534 51.6104H99.5126C99.5126 51.6104 99.5126 51.4121 99.5126 51.3163C99.5126 51.2206 99.4237 51.0838 99.3554 51.0496C99.287 51.0154 96.8116 51.0223 96.8116 51.0223Z" fill="#4F4F50"/>
<path d="M101.065 51.0017C101.065 51.0017 100.969 51.0291 100.874 51.1248C100.778 51.2205 100.682 51.3504 100.634 51.4256C100.586 51.5009 100.579 51.6239 100.579 51.6239H103.787C103.787 51.6239 103.923 51.3504 103.91 51.2889C103.889 51.2274 103.793 51.0496 103.725 51.0222C103.657 51.0017 101.065 51.0017 101.065 51.0017Z" fill="#4F4F50"/>
<path d="M105.606 51.0359C105.606 51.0359 105.469 51.0359 105.366 51.0632C105.264 51.0906 105.093 51.3095 105.059 51.371C105.024 51.4326 104.97 51.6172 104.97 51.6172H108.109C108.109 51.6172 108.238 51.3778 108.218 51.2821C108.197 51.1932 108.129 51.0427 108.088 51.0427C108.054 51.0359 105.606 51.0359 105.606 51.0359Z" fill="#4F4F50"/>
<path d="M109.811 51.036C109.791 51.0428 109.64 51.0907 109.538 51.1659C109.435 51.2411 109.298 51.4532 109.285 51.4874C109.271 51.5147 109.237 51.6105 109.237 51.6105H112.424C112.424 51.6105 112.526 51.3985 112.547 51.3301C112.567 51.2617 112.519 51.0633 112.506 51.0428C112.485 51.0223 109.811 51.036 109.811 51.036Z" fill="#4F4F50"/>
<path d="M114.037 51.036C114.037 51.036 113.928 51.077 113.853 51.1386C113.771 51.2001 113.6 51.4052 113.422 51.6446C113.244 51.8839 112.656 52.8344 112.656 52.8344L112.745 53.6755L115.159 53.655C115.159 53.655 116.902 51.4121 116.95 51.3164C116.998 51.2275 117.026 51.0839 116.998 51.0428C116.978 51.0086 114.037 51.036 114.037 51.036Z" fill="#4F4F50"/>
<path d="M124.869 50.9744C124.869 50.9744 124.78 51.0222 124.623 51.1385C124.466 51.2547 122.701 53.2447 122.66 53.2789C122.626 53.3131 122.626 53.5867 122.633 53.6208C122.64 53.655 122.824 53.6482 122.975 53.6482C123.132 53.6482 124.773 53.6482 124.965 53.6482C125.156 53.6482 125.43 53.5388 125.758 53.1695C126.086 52.8002 127.7 51.3094 127.734 51.2547C127.769 51.2 127.782 51.0428 127.714 51.0154C127.659 50.988 124.869 50.9744 124.869 50.9744Z" fill="#4F4F50"/>
<path d="M127.687 43.7259L127.762 43.678L127.27 42.1463C127.27 42.1463 120.595 42.1121 120.445 42.1121C120.288 42.1121 120.308 42.2283 120.315 42.324C120.322 42.4198 120.759 43.7464 120.78 43.7738C120.8 43.8011 120.971 43.7943 120.971 43.7943L122.722 43.7874C122.722 43.7874 124.637 50.8582 124.664 50.9129C124.691 50.9677 124.828 50.9471 124.828 50.9471L127.871 50.9813C127.871 50.9813 127.947 51.036 127.823 50.5984C127.707 50.1607 125.861 44.1088 125.82 43.9242C125.772 43.7396 125.758 43.7601 125.936 43.7259C126.114 43.6917 127.687 43.7259 127.687 43.7259Z" fill="#ACACAD"/>
<path d="M112.765 50.8652C112.731 50.7763 111.192 42.1121 111.192 42.1121L104.135 42.1463L105.154 51.0498L108.375 50.9746L108.006 48.1777L109.038 48.1845L109.503 50.9814L109.592 51.0361C109.592 51.0361 112.717 51.0566 112.745 51.043C112.779 51.043 112.806 50.9541 112.765 50.8652ZM108.635 44.697C108.635 44.697 108.683 45.1141 108.717 45.1346C108.751 45.1551 108.943 45.1073 108.943 45.1073L109.414 45.1825C109.414 45.1825 109.585 46.7143 109.585 46.7621C109.585 46.81 109.51 46.8374 109.469 46.8169C109.428 46.7963 108.949 46.7963 108.949 46.7963C108.949 46.7963 108.943 46.4954 108.922 46.4066C108.902 46.3177 108.847 46.2082 108.737 46.2082C108.628 46.2082 107.944 46.2082 107.787 46.2082C107.623 46.2082 107.643 46.3245 107.65 46.4202C107.657 46.5091 107.657 46.8305 107.657 46.8305C107.657 46.8305 107.329 46.8305 107.219 46.8305C107.11 46.8305 107.028 46.8305 107.021 46.6459C107.014 46.4613 106.857 45.1962 106.857 45.1962L107.329 45.1209L107.39 45.1415L107.397 44.6833C107.397 44.6833 106.501 44.6833 106.296 44.697C106.098 44.7038 106.084 44.5397 106.098 44.4713C106.112 44.4029 106.071 43.6302 106.071 43.6302L107.267 43.637L107.438 44.6354L108.512 44.5875L108.539 43.5891H109.756L109.968 44.6901L108.635 44.697Z" fill="#ACACAD"/>
<path d="M103.588 46.427L102.542 46.4475L102.487 45.5244L102.597 45.4902L103.424 45.5107L103.452 45.456L103.11 42.1599H96.1073L96.4971 50.9061L96.5518 50.995L98.4665 51.0429L99.6222 51.0361C99.6222 51.0361 99.7111 51.0087 99.6769 50.7899C99.6427 50.571 99.4581 47.3365 99.4581 47.3365H100.532L100.839 50.9882L101.065 51.0155H103.958L104.047 50.9608L103.588 46.427ZM99.3213 45.5722L99.2734 43.7122L100.292 43.7054L100.354 45.5722H99.3213Z" fill="#ACACAD"/>
<path d="M95.0677 43.6917L95.0814 42.1667L88.0584 42.2078L87.8123 51.0155L95.3549 51.036L95.3071 49.2102H91.0126L91.1357 43.6643L95.0677 43.6917Z" fill="#ACACAD"/>
<path d="M86.6975 47.2134H82.5604V47.3775H86.6975V47.2134Z" fill="#DCDDDC"/>
<path d="M74.3477 46.4887H73.2604L73.3014 46.3655H74.3819L74.3477 46.4887Z" fill="#DCDDDC"/>
<path d="M75.1272 48.2667H74.0604L74.1151 48.0957H75.1819L75.1272 48.2667Z" fill="#DCDDDC"/>
<path d="M61.6284 47.398H60.5547L60.5957 47.2681H61.6626L61.6284 47.398Z" fill="#DCDDDC"/>
<path d="M60.0897 49.2306H57.9972L58.0587 49.0325H60.1376L60.0897 49.2306Z" fill="#DCDDDC"/>
<path d="M58.4621 47.4116H57.3885L57.4296 47.2886H58.5032L58.4621 47.4116Z" fill="#DCDDDC"/>
<path d="M56.2398 51.1524H53.2035L53.2856 50.9541H56.3218L56.2398 51.1524Z" fill="#DCDDDC"/>
<path d="M63.8782 51.118H60.6573L60.7121 50.947H63.9329L63.8782 51.118Z" fill="#DCDDDC"/>
<path d="M68.1523 51.118H64.9314L64.9861 50.947H68.207L68.1523 51.118Z" fill="#DCDDDC"/>
<path d="M72.4944 51.118H69.3282L69.383 50.947H72.5491L72.4944 51.118Z" fill="#DCDDDC"/>
<path d="M78.0405 50.947H74.7443V51.1111H78.0405V50.947Z" fill="#DCDDDC"/>
<path d="M86.6156 50.947H79.0797V51.1111H86.6156V50.947Z" fill="#DCDDDC"/>
<path d="M86.8686 43.7874H82.8203L82.8613 43.6301H86.8686V43.7874Z" fill="#DCDDDC"/>
<path d="M95.0677 43.6165H91.0947V43.7806H95.0677V43.6165Z" fill="#DCDDDC"/>
<path d="M95.3208 50.9473H87.785V51.1114H95.3208V50.9473Z" fill="#DCDDDC"/>
<path d="M99.6495 50.9473H96.5039V51.1114H99.6495V50.9473Z" fill="#DCDDDC"/>
<path d="M104.047 50.947H100.846V51.1111H104.047V50.947Z" fill="#DCDDDC"/>
<path d="M100.313 43.6575H99.2255V43.8216H100.313V43.6575Z" fill="#DCDDDC"/>
<path d="M100.525 47.2681H99.4375V47.4322H100.525V47.2681Z" fill="#DCDDDC"/>
<path d="M103.452 45.4148H102.481V45.5789H103.452V45.4148Z" fill="#DCDDDC"/>
<path d="M107.295 43.5549H106.03V43.6848H107.295V43.5549Z" fill="#DCDDDC"/>
<path d="M109.791 43.5549H108.526V43.6848H109.791V43.5549Z" fill="#DCDDDC"/>
<path d="M107.418 45.0798H106.871V45.2439H107.418V45.0798Z" fill="#DCDDDC"/>
<path d="M108.58 44.5532H107.411V44.6831H108.58V44.5532Z" fill="#DCDDDC"/>
<path d="M109.408 45.0798H108.751V45.2439H109.408V45.0798Z" fill="#DCDDDC"/>
<path d="M109.073 48.1023H108.026V48.2664H109.073V48.1023Z" fill="#DCDDDC"/>
<path d="M108.355 50.947H105.107V51.1111H108.355V50.947Z" fill="#DCDDDC"/>
<path d="M112.82 50.947H109.531V51.1111H112.82V50.947Z" fill="#DCDDDC"/>
<path d="M117.019 50.947H113.778V51.1111H117.019V50.947Z" fill="#DCDDDC"/>
<path d="M115.439 43.7122H119.59L119.624 43.8557H115.473L115.439 43.7122Z" fill="#DCDDDC"/>
<path d="M116.219 47.2681H120.37L120.404 47.4116H116.253L116.219 47.2681Z" fill="#DCDDDC"/>
<path d="M120.725 43.7122H122.722L122.756 43.8557H120.759L120.725 43.7122Z" fill="#DCDDDC"/>
<path d="M125.806 43.6575H127.803L127.837 43.8558H125.84L125.806 43.6575Z" fill="#DCDDDC"/>
<path d="M124.678 50.8721H127.83L127.864 51.0841H124.719L124.678 50.8721Z" fill="#DCDDDC"/>
<path opacity="0.2" d="M74.7593 70.3118H69.2853H63.6028H57.9752H52.3147H46.7749H41.1802V75.9064V81.5231V87.1506V92.7124V98.329V103.858V109.551V115.212H46.7749H52.3147H57.9752H63.6028H69.2853H86.0474V109.551V103.858V98.329V92.7124V87.1506V81.5231V75.9064V70.3118H80.365H74.7593Z" fill="#1F1D20"/>
<path d="M46.7749 68.1177H41.1802V73.7125H46.7749V68.1177Z" fill="#E99B48"/>
<path d="M46.7749 73.7124H41.1802V79.3289H46.7749V73.7124Z" fill="#E98D3F"/>
<path d="M46.7749 79.3291H41.1802V84.9568H46.7749V79.3291Z" fill="#E99B48"/>
<path d="M46.7749 84.9565H41.1802V90.5181H46.7749V84.9565Z" fill="#DF943E"/>
<path d="M46.7749 90.5183H41.1802V96.1351H46.7749V90.5183Z" fill="#E8CCAA"/>
<path d="M46.7817 73.7192H52.3215V68.1244H46.7817V73.7192Z" fill="#DF853B"/>
<path d="M46.7817 79.333H52.3215V73.7163H46.7817V79.333Z" fill="#E99B48"/>
<path d="M46.7817 84.9551H52.3215V79.3276H46.7817V84.9551Z" fill="#E98D3F"/>
<path d="M46.7817 90.5208H52.3215V84.9592H46.7817V90.5208Z" fill="#DF943E"/>
<path d="M46.7817 96.1372H52.3215V90.5205H46.7817V96.1372Z" fill="white"/>
<path d="M57.9754 68.1177H52.3148V73.7125H57.9754V68.1177Z" fill="#E99B48"/>
<path d="M57.9754 73.7124H52.3148V79.3289H57.9754V73.7124Z" fill="#E98D3F"/>
<path d="M57.9754 79.3289H52.3148V84.9566H57.9754V79.3289Z" fill="#E99B48"/>
<path d="M57.9754 84.9568H52.3148V90.5184H57.9754V84.9568Z" fill="#DF943E"/>
<path d="M57.9754 90.5183H52.3148V96.1351H57.9754V90.5183Z" fill="#206331"/>
<path d="M57.9712 73.7192H63.5988V68.1244H57.9712V73.7192Z" fill="#E98D3F"/>
<path d="M57.9712 79.333H63.5988V73.7163H57.9712V79.333Z" fill="#E99B48"/>
<path d="M57.9712 84.9551H63.5988V79.3276H57.9712V84.9551Z" fill="#DF943E"/>
<path d="M57.9712 90.5208H63.5988V84.9592H57.9712V90.5208Z" fill="#F0D5B5"/>
<path d="M57.9712 96.1372H63.5988V90.5205H57.9712V96.1372Z" fill="#F8DBB9"/>
<path d="M69.2853 68.1177H63.6028V73.7125H69.2853V68.1177Z" fill="#E98D3F"/>
<path d="M69.2853 73.7124H63.6028V79.3289H69.2853V73.7124Z" fill="#DF943E"/>
<path d="M69.2853 79.3289H63.6028V84.9566H69.2853V79.3289Z" fill="#EDD5B4"/>
<path d="M69.2853 84.9568H63.6028V90.5184H69.2853V84.9568Z" fill="#F8DBB9"/>
<path d="M69.2853 90.5183H63.6028V96.1351H69.2853V90.5183Z" fill="#F8DBB9"/>
<path d="M69.2925 73.7192H74.7666V68.1244H69.2925V73.7192Z" fill="#E99B48"/>
<path d="M69.2925 79.333H74.7666V73.7163H69.2925V79.333Z" fill="#E99B48"/>
<path d="M69.2925 84.9551H74.7666V79.3276H69.2925V84.9551Z" fill="#E8CFAE"/>
<path d="M69.2925 90.5208H74.7666V84.9592H69.2925V90.5208Z" fill="#E8CCAA"/>
<path d="M69.2925 96.1372H74.7666V90.5205H69.2925V96.1372Z" fill="#206331"/>
<path d="M80.3539 68.1177H74.7593V73.7125H80.3539V68.1177Z" fill="#E98D3F"/>
<path d="M80.3539 73.7124H74.7593V79.3289H80.3539V73.7124Z" fill="#E99B48"/>
<path d="M80.3539 79.3289H74.7593V84.9566H80.3539V79.3289Z" fill="#E99B48"/>
<path d="M80.3539 84.9568H74.7593V90.5184H80.3539V84.9568Z" fill="#E8CCAA"/>
<path d="M80.3539 90.5183H74.7593V96.1351H80.3539V90.5183Z" fill="white"/>
<path d="M80.3606 73.7192H86.0428V68.1244H80.3606V73.7192Z" fill="#E99B48"/>
<path d="M80.3606 79.333H86.0428V73.7163H80.3606V79.333Z" fill="#E98D3F"/>
<path d="M80.3606 84.9551H86.0428V79.3276H80.3606V84.9551Z" fill="#E98D3F"/>
<path d="M80.3606 90.5208H86.0428V84.9592H80.3606V90.5208Z" fill="#E99B48"/>
<path d="M80.3606 96.1372H86.0428V90.5205H80.3606V96.1372Z" fill="#E8CCAA"/>
<path d="M46.7749 96.135H41.1802V101.675H46.7749V96.135Z" fill="#F2D7BA"/>
<path d="M46.7817 101.668H52.3215V96.1281H46.7817V101.668Z" fill="#F2D7BA"/>
<path d="M57.9754 96.135H52.3148V101.675H57.9754V96.135Z" fill="#F2D7BA"/>
<path d="M57.9712 101.668H63.5988V96.1281H57.9712V101.668Z" fill="#F2D7BA"/>
<path d="M69.2853 96.135H63.6028V101.675H69.2853V96.135Z" fill="#F2D7BA"/>
<path d="M69.2925 101.668H74.7666V96.1281H69.2925V101.668Z" fill="#F2D7BA"/>
<path d="M80.3539 96.135H74.7593V101.675H80.3539V96.135Z" fill="#F2D7BA"/>
<path d="M80.3606 101.668H86.0428V96.1281H80.3606V101.668Z" fill="#F2D7BA"/>
<path d="M46.7749 101.675H41.1802V107.357H46.7749V101.675Z" fill="#F2D7BA"/>
<path d="M46.7817 107.352H52.3215V101.669H46.7817V107.352Z" fill="#F2D7BA"/>
<path d="M57.9754 101.675H52.3148V107.357H57.9754V101.675Z" fill="#F2D7BA"/>
<path d="M57.9712 107.352H63.5988V101.669H57.9712V107.352Z" fill="#F1BCB0"/>
<path d="M69.2853 101.675H63.6028V107.357H69.2853V101.675Z" fill="#F1BCB0"/>
<path d="M69.2925 107.352H74.7666V101.669H69.2925V107.352Z" fill="#F1BCB0"/>
<path d="M80.3539 101.675H74.7593V107.357H80.3539V101.675Z" fill="#F3DFC4"/>
<path d="M80.3606 107.352H86.0428V101.669H80.3606V107.352Z" fill="#F3DFC4"/>
<path d="M46.7749 107.357H41.1802V113.018H46.7749V107.357Z" fill="#F3DFC4"/>
<path d="M46.7817 113.015H52.3215V107.354H46.7817V113.015Z" fill="#F3DFC4"/>
<path d="M57.9754 107.357H52.3148V113.018H57.9754V107.357Z" fill="#F3DFC4"/>
<path d="M57.9712 113.015H63.5988V107.354H57.9712V113.015Z" fill="#F3DFC4"/>
<path d="M69.2853 107.357H63.6028V113.018H69.2853V107.357Z" fill="#F3DFC4"/>
<path d="M69.2925 113.015H74.7666V107.354H69.2925V113.015Z" fill="#F3DFC4"/>
<path d="M80.3539 107.357H74.7593V113.018H80.3539V107.357Z" fill="#F3DFC4"/>
<path d="M80.3606 113.015H86.0428V107.354H80.3606V113.015Z" fill="#F3DFC4"/>
<path opacity="0.2" d="M134.223 70.5532H100.688H97.6277H95.1814V87.3807V115.213H106.272H128.453H139.73V87.3807V81.6465V70.5532H134.223Z" fill="#1F1D20"/>
<path d="M139.731 68.3479H95.1814V113.008H139.731V68.3479Z" fill="#FBAC81"/>
<path d="M106.27 113.008H128.451V102.047H106.27V113.008Z" fill="#7C2E00"/>
<path d="M100.699 68.3479H95.1814V85.1643H100.699V68.3479Z" fill="#7C2E00"/>
<path d="M134.21 85.1765H139.727V68.3601H134.21V85.1765Z" fill="#7C2E00"/>
<path d="M97.6139 79.4443H139.728V68.362H97.6139V79.4443Z" fill="#7C2E00"/>
<path d="M106.206 90.7109H100.82V96.3788H106.206V90.7109Z" fill="#FCFFFF"/>
<path d="M106.21 96.3875H111.849V90.7193H106.21V96.3875Z" fill="#010206"/>
<path d="M128.508 90.7109H123.122V96.3788H128.508V90.7109Z" fill="#010206"/>
<path d="M111.716 102.058H123.125V96.3898H111.716V102.058Z" fill="#A03E0D"/>
<path d="M111.716 107.465H123.125V102.051H111.716V107.465Z" fill="#F56E7F"/>
<path d="M128.514 96.3875H134.152V90.7193H128.514V96.3875Z" fill="#FCFFFF"/>
<defs>
<linearGradient id="paint0_linear_318_27" x1="90.4556" y1="9.39946" x2="90.4556" y2="180.799" gradientUnits="userSpaceOnUse">
<stop stop-color="#00ABDE"/>
<stop offset="1" stop-color="#007ED8"/>
</linearGradient>
<linearGradient id="paint1_linear_318_27" x1="36.5751" y1="4.19093" x2="203.253" y2="286.522" gradientUnits="userSpaceOnUse">
<stop stop-color="#007ED8"/>
<stop offset="0.7065" stop-color="#002D4C"/>
</linearGradient>
<linearGradient id="paint2_linear_318_27" x1="9.94862" y1="-3.46963" x2="226.874" y2="184.38" gradientUnits="userSpaceOnUse">
<stop offset="0.0174" stop-color="#74B970"/>
<stop offset="0.9876" stop-color="#396337"/>
</linearGradient>
</defs>
</svg>
